Coordinates
version=1
nRows=30
nColumns=23
inDegrees=yes

Units are S.I. units (second, meters, Newtons, ...)
If the header above contains a line with 'inDegrees', this indicates whether rotational values are in degrees (yes) or radians (no).

endheader
time	pelvis_tilt	pelvis_list	pelvis_rotation	pelvis_tx	pelvis_ty	pelvis_tz	hip_flexion_r	hip_adduction_r	hip_rotation_r	knee_angle_r	knee_angle_r_beta	ankle_angle_r	subtalar_angle_r	mtp_angle_r	hip_flexion_l	hip_adduction_l	hip_rotation_l	knee_angle_l	knee_angle_l_beta	ankle_angle_l	subtalar_angle_l	mtp_angle_l
     15.00000000	     -6.66837550	     -1.18146783	      4.32266574	      2.25411261	      0.96902840	      1.02288332	     29.77675447	     -3.12563069	    -11.12381537	     48.44173638	      0.84546780	      8.24716361	    -12.55849138	      0.00000000	     -3.73600274	     -0.81634981	     -7.16376753	     18.57170194	      0.32413735	      7.45919816	      6.93921580	      0.00000000
     15.00666667	     -6.88253929	     -1.65379180	      4.28810051	      2.25492127	      0.97283762	      1.02352814	     29.66480984	     -2.38894966	    -11.77422169	     44.69803193	      0.78012783	      8.63669996	    -11.59680044	      0.00000000	     -4.83330651	     -1.32905453	     -7.25494520	     17.44767389	      0.30451936	      4.64681571	      6.42425844	      0.00000000
     15.01333333	     -7.13927159	     -2.04327896	      4.21239157	      2.25571145	      0.97633846	      1.02431655	     29.50942425	     -1.70041300	    -12.41431822	     40.84242010	      0.71283471	      8.96950778	    -10.40140914	      0.00000000	     -5.73103546	     -1.77924345	     -7.46640147	     16.61415450	      0.28997170	      1.89845201	      5.90152633	      0.00000000
     15.02000000	     -7.40976086	     -2.35134510	      4.09977515	      2.25651584	      0.97951449	      1.02521772	     29.28187687	     -1.03937186	    -12.99035093	     36.90348532	      0.64408732	      9.31505976	     -8.88577036	      0.00000000	     -6.45606418	     -2.16973530	     -7.77845457	     16.09836675	      0.28096950	     -0.70440645	      5.35410139	      0.00000000
     15.02666667	     -7.62966030	     -2.56386568	      3.97454237	      2.25732245	      0.98238455	      1.02622308	     28.91913307	     -0.41137621	    -13.46472794	     32.90932909	      0.57437615	      9.59906852	     -7.19693398	      0.00000000	     -7.08578922	     -2.48895921	     -8.15379032	     15.88057905	      0.27716839	     -3.17369872	      4.79225622	      0.00000000
     15.03333333	     -7.85155864	     -2.70305486	      3.79211361	      2.25810399	      0.98483594	      1.02739122	     28.48821569	      0.25938281	    -13.64747595	     28.88343608	      0.50411106	      9.89319216	     -5.43837709	      0.00000000	     -7.56446825	     -2.75787207	     -8.61820491	     15.98094608	      0.27892013	     -5.35346541	      4.18864137	      0.00000000
     15.04000000	     -8.71604376	     -2.40238244	      3.37637992	      2.25840336	      0.98588066	      1.02896314	     28.90468982	      0.58801614	    -13.16017973	     25.28882513	      0.44137326	     10.30665958	     -3.75611112	      0.00000000	     -7.13345518	     -2.55107923	     -9.33822005	     16.59430701	      0.28962529	     -7.22434424	      3.70088070	      0.00000000
     15.04666667	     -8.08371400	     -2.81719525	      3.47380144	      2.25968744	      0.98860926	      1.02985144	     27.11999800	      1.68162769	    -12.90752487	     20.74168662	      0.36201072	     10.17436669	     -2.57465983	      0.00000000	     -8.26587845	     -3.25525712	     -9.71082719	     17.18492984	      0.29993361	     -8.90551618	      2.98911550	      0.00000000
     15.05333333	     -8.74088141	     -2.40625337	      3.12299963	      2.25999199	      0.98891322	      1.03124630	     27.18751274	      1.90008420	    -11.91606880	     17.36455099	      0.30306859	     10.64761217	     -0.94154455	      0.00000000	     -7.79820740	     -2.98757623	    -10.36675306	     18.31891049	      0.31972530	    -10.29342407	      2.29430386	      0.00000000
     15.06000000	     -8.25128612	     -2.72748660	      3.34514362	      2.26125057	      0.99029948	      1.03196165	     25.34743926	      2.88547531	    -10.59703146	     12.89095810	      0.22498966	     10.05188051	     -1.08736890	      0.00000000	     -8.37989338	     -3.74414253	    -10.95488179	     19.75156564	      0.34472985	    -11.18555933	      1.86221319	      0.00000000
     15.06666667	     -7.64895060	     -2.75786914	      3.33005781	      2.26243957	      0.99119598	      1.03271386	     23.37142176	      3.59727405	     -8.41323492	      8.73553386	      0.15246383	      9.45541942	     -1.65414537	      0.00000000	     -9.16644655	     -4.12754673	    -11.68824356	     21.06021346	      0.36757007	    -12.10242314	      1.46173545	      0.00000000
     15.07333333	     -7.44702430	     -2.59361150	      3.31657116	      2.26328920	      0.99092218	      1.03340669	     22.14083921	      3.82150794	     -6.82094888	      5.59781436	      0.09770029	      9.19381018	     -1.52311836	      0.00000000	     -9.31849890	     -4.33587926	    -12.39399856	     22.78841298	      0.39773284	    -12.70358125	      0.88137153	      0.00000000
     15.08000000	     -7.63674796	     -2.22288960	      3.06953608	      2.26365182	      0.98966771	      1.03438127	     21.84054379	      3.70275125	     -5.84386659	      3.82273140	      0.06671925	      9.58075176	     -0.44551205	      0.00000000	     -8.97101785	     -4.25554960	    -13.07007122	     24.67487465	      0.43065781	    -13.18843860	     -0.10374205	      0.00000000
     15.08666667	     -7.39890946	     -2.16741042	      3.02219814	      2.26420352	      0.98845235	      1.03512387	     20.99844598	      3.84694197	     -4.94425946	      2.18818632	      0.03819106	      9.32347559	     -0.31051791	      0.00000000	     -8.92698117	     -4.69669019	    -13.95967805	     26.85397089	      0.46869021	    -13.24783384	     -0.51022748	      0.00000000
     15.09333333	     -7.21899473	     -2.04667696	      2.71768998	      2.26446918	      0.98684603	      1.03622844	     20.57152615	      3.94560291	     -4.34351464	      1.57929378	      0.02756388	      9.37785927	      0.28114656	      0.00000000	     -8.85993719	     -4.95040317	    -14.73538359	     28.91477255	      0.50465798	    -13.41754710	     -1.63475694	      0.00000000
     15.10000000	     -6.98819830	     -2.19011433	      2.53923663	      2.26479591	      0.98491824	      1.03729076	     20.13749015	      4.26251659	     -4.09238090	      1.37014618	      0.02391356	      9.09611519	      0.59106515	      0.00000000	     -8.68313186	     -5.65870211	    -15.71586568	     31.28927112	      0.54610080	    -13.19120342	     -2.16741257	      0.00000000
     15.10666667	     -6.51843263	     -2.44409161	      2.36034158	      2.26518614	      0.98304703	      1.03830692	     19.43876150	      4.70545736	     -3.85470116	      1.45737065	      0.02543592	      8.52030793	      0.66208751	      0.00000000	     -8.78040304	     -6.40660897	    -16.40358593	     33.51310402	      0.58491401	    -13.10611595	     -3.40745141	      0.00000000
     15.11333333	     -5.78063623	     -3.02987594	      2.39785625	      2.26580584	      0.98113973	      1.03909348	     18.36572184	      5.44797469	     -3.75405293	      1.64851203	      0.02877196	      7.45510795	      0.17595870	      0.00000000	     -9.04017007	     -7.66805563	    -17.14682129	     35.92614571	      0.62702953	    -12.70822673	     -4.02378216	      0.00000000
     15.12000000	     -5.05943363	     -3.52777626	      2.25407439	      2.26621649	      0.97902273	      1.04011151	     17.51021884	      6.13293834	     -3.80373818	      2.47717224	      0.04323481	      6.21888119	     -0.19746830	      0.00000000	     -9.30732775	     -8.69800921	    -17.71548823	     38.17662146	      0.66630774	    -12.46649064	     -5.47131731	      0.00000000
     15.12666667	     -4.25799493	     -4.35764398	      2.36313522	      2.26664278	      0.97664314	      1.04082176	     16.56954953	      7.09603019	     -3.98765584	      3.48521346	      0.06082845	      4.84839864	     -1.16743123	      0.00000000	     -9.46065275	    -10.25196778	    -18.24582562	     40.70130708	      0.71037182	    -12.10669435	     -6.46948702	      0.00000000
     15.13333333	     -3.35848265	     -5.03726839	      2.20468358	      2.26669891	      0.97418349	      1.04183664	     15.84736879	      7.93258220	     -4.29539822	      5.31240491	      0.09271896	      3.45976986	     -1.92040179	      0.00000000	     -9.75661783	    -11.46866585	    -18.66630528	     43.04177943	      0.75122077	    -11.72600770	     -7.87079192	      0.00000000
     15.14000000	     -2.98719788	     -5.87541891	      2.01799815	      2.26629048	      0.97069561	      1.04301075	     15.95283533	      8.86898336	     -4.71201270	      7.74187501	      0.13512121	      2.64427779	     -3.02896360	      0.00000000	     -9.24972494	    -13.01360939	    -19.22082270	     45.81411291	      0.79960711	    -11.14265120	     -8.76844361	      0.00000000
     15.14666667	     -2.90571468	     -6.39033730	      1.53018061	      2.26529780	      0.96671028	      1.04445706	     16.77904195	      9.40282759	     -5.36442784	     11.15112171	      0.19462379	      2.52713952	     -3.43054501	      0.00000000	     -8.39955744	    -14.01250167	    -19.56110146	     48.49666025	      0.84642640	    -10.65019664	    -10.12875495	      0.00000000
     15.15333333	     -1.88105767	     -7.21636407	      1.42892968	      2.26471355	      0.96381492	      1.04518577	     16.20297944	     10.24915505	     -5.79467519	     13.84395282	      0.24162256	      2.34367809	     -4.34302587	      0.00000000	     -8.52858870	    -15.32842809	    -19.56268760	     50.92040034	      0.88872864	    -10.22640288	    -11.46785689	      0.00000000
     15.16000000	     -2.71341312	     -7.25017115	      0.61038655	      2.26266540	      0.95829698	      1.04676240	     18.48442175	     10.06754705	     -6.73588109	     18.43181886	      0.32169593	      3.93939651	     -3.49068320	      0.00000000	     -6.39964582	    -15.62035176	    -19.46072697	     53.81292082	      0.93921265	     -9.49958320	    -12.57487787	      0.00000000
     15.16666667	     -2.54267843	     -7.61059573	      0.14202381	      2.26108864	      0.95417194	      1.04763239	     19.11640394	     10.30613786	     -7.09812186	     21.91202480	      0.38243698	      5.33650472	     -3.36109548	      0.00000000	     -5.34308476	    -16.23570246	    -19.13672776	     56.38213400	      0.98405388	     -8.82931754	    -13.58593771	      0.00000000
     15.17333333	     -2.36762602	     -7.93748675	     -0.28001093	      2.25935941	      0.95023734	      1.04827189	     19.56863999	     10.49699833	     -7.36989708	     25.09071046	      0.43791551	      6.97580560	     -3.00827926	      0.00000000	     -4.16271681	    -16.69014016	    -18.49053363	     58.86164525	      1.02732951	     -8.10020902	    -14.32937671	      0.00000000
     15.18000000	     -2.07927957	     -8.28252397	     -0.64690631	      2.25758116	      0.94673206	      1.04864963	     19.65195799	     10.71006030	     -7.53283181	     27.82539476	      0.48564475	      8.81543471	     -2.55075468	      0.00000000	     -3.01674303	    -17.05527876	    -17.62834133	     61.20411527	      1.06821333	     -7.32478957	    -14.90156889	      0.00000000
     15.18666667	     -1.25595846	     -8.92166143	     -0.88708882	      2.25598235	      0.94443311	      1.04877889	     18.69424030	     11.36087438	     -7.28617925	     29.63521014	      0.51723199	     10.34682529	     -2.76912152	      0.00000000	     -2.44751962	    -17.64358212	    -16.64153978	     63.27240207	      1.10431174	     -6.54427605	    -15.25992294	      0.00000000
     15.19333333	     -1.34845764	     -9.06551662	     -1.26591702	      2.25398103	      0.94123570	      1.04884157	     18.83372345	     11.22751861	     -7.76697864	     31.82909875	      0.55552257	     12.56661220	     -1.12856634	      0.00000000	     -0.67563773	    -17.58678038	    -15.41963086	     65.42106603	      1.14181300	     -5.42300855	    -15.01935809	      0.00000000
